<?xml version="1.0" encoding="UTF-8"?>
<svg version="1.1" xmlns="http://www.w3.org/2000/svg" width="500" height="500">
<path d="M0 0 C10.4732087 8.12998108 13.75303862 21.16154691 15.53271484 33.77587891 C17.41593394 49.69015986 17.64383917 65.6728052 18.02905273 81.67919922 C17.33747623 110.84120707 17.33747623 110.84120707 26 138 C28.03920501 139.72437743 28.03920501 139.72437743 30 141 C30.433125 140.505 30.86625 140.01 31.3125 139.5 C33 138 33 138 36 138 C36 139.32 36 140.64 36 142 C39.55812279 139.98231787 39.55812279 139.98231787 42.625 137.3125 C44 136 44 136 47 136 C47.64559539 147.23814194 45.21277932 156.22418046 38 165 C28.71906277 174.89582335 17.23865325 176.87533121 4.0625 177.5 C-4.45534248 177.34139833 -10.94606017 174.5412952 -17.34765625 168.94921875 C-23.55853171 162.41328813 -27.50167744 154.63056883 -30 146 C-30.99 146.309375 -31.98 146.61875 -33 146.9375 C-37.04962954 148.20300923 -40.5860089 148.44825111 -45 149 C-47.31 158.24 -49.62 167.48 -52 177 C-55.36244348 175.31877826 -57.25388787 174.03354879 -59.9375 171.5625 C-62.80671864 168.98824776 -65.57665878 166.81865002 -69 165 C-69.33 166.32 -69.66 167.64 -70 169 C-68.35 170.32 -66.7 171.64 -65 173 C-64.67 172.34 -64.34 171.68 -64 171 C-62.875 172.6875 -62.875 172.6875 -62 175 C-62.875 177.75 -62.875 177.75 -64 180 C-65.12588014 179.04270084 -66.2506715 178.08412105 -67.375 177.125 C-68.00148437 176.59132813 -68.62796875 176.05765625 -69.2734375 175.5078125 C-70.55836651 174.38567993 -71.79371975 173.20628025 -73 172 C-76.02370919 172.26877415 -78.55935215 172.81821458 -81.3671875 173.9765625 C-90.88686494 177.67708993 -104.67314923 178.9933344 -114.65625 176.27734375 C-118.78180273 174.37620285 -121.60867969 171.8261125 -124 168 C-128.83100668 154.55989168 -121.56838075 137.13266173 -116.03881836 125.07324219 C-110.64919668 113.65268259 -104.57784676 102.93947291 -97.60351562 92.42480469 C-76.54088044 62.51775474 -76.54088044 62.51775474 -67 28 C-67.99 30.97 -68.98 33.94 -70 37 C-70.99 36.67 -71.98 36.34 -73 36 C-73 31.71 -73 27.42 -73 23 C-77.02879721 28.11766132 -79.25267359 32.73519555 -81 39 C-81.99 38.67 -82.98 38.34 -84 38 C-84.78926831 26.66523015 -82.28105171 17.81226474 -74.90625 9.0625 C-56.60265112 -10.74139387 -22.2652298 -15.85554243 0 0 Z M-36 57 C-38.64 64.26 -41.28 71.52 -44 79 C-42.68 79.33 -41.36 79.66 -40 80 C-39.34 79.34 -38.68 78.68 -38 78 C-36.68 77.67 -35.36 77.34 -34 77 C-34.33 70.4 -34.66 63.8 -35 57 C-35.33 57 -35.66 57 -36 57 Z M-38.6875 83.5 C-39.120625 83.995 -39.55375 84.49 -40 85 C-38.68 84.67 -37.36 84.34 -36 84 C-36 85.98 -36 87.96 -36 90 C-35.34 90 -34.68 90 -34 90 C-34 87.36 -34 84.72 -34 82 C-37.00259517 81.66781808 -37.00259517 81.66781808 -38.6875 83.5 Z M-47 84 C-49.28728734 85.83883881 -49.28728734 85.83883881 -49.125 88.625 C-49.08375 89.40875 -49.0425 90.1925 -49 91 C-49.99 91.33 -50.98 91.66 -52 92 C-51.34 92.66 -50.68 93.32 -50 94 C-48.05925139 93.72382467 -48.05925139 93.72382467 -46 93 C-44.66666667 92.66666667 -43.33333333 92.33333333 -42 92 C-41.34 89.69 -40.68 87.38 -40 85 C-43.40320934 84.32326553 -43.40320934 84.32326553 -47 84 Z M-40.3125 95.5 C-44.2129616 97.67700183 -46.67100241 96.80710125 -51 96 C-51.99 98.97 -52.98 101.94 -54 105 C-47.07 104.34 -40.14 103.68 -33 103 C-33 100.36 -33 97.72 -33 95 C-36.20917879 93.99140095 -37.41340815 93.61950799 -40.3125 95.5 Z M-64 132 C-68.35604213 145.81613874 -68.35604213 145.81613874 -68 160 C-65.69261418 161.66591532 -65.69261418 161.66591532 -63 163 C-61.73081178 164.18779739 -60.4982918 165.41643777 -59.3125 166.6875 C-57.62787336 168.53965679 -57.62787336 168.53965679 -56 170 C-55.34 170 -54.68 170 -54 170 C-53.86424561 169.42145264 -53.72849121 168.84290527 -53.58862305 168.24682617 C-48.81212621 147.93003832 -48.81212621 147.93003832 -46.578125 140.25390625 C-45.8821647 137.54060158 -45.46050451 134.76302707 -45 132 C-51.27 132 -57.54 132 -64 132 Z M-41 132 C-41.50559908 133.43554025 -42.0042749 134.8735202 -42.5 136.3125 C-42.7784375 137.11300781 -43.056875 137.91351563 -43.34375 138.73828125 C-44.13933107 141.08769422 -44.13933107 141.08769422 -44 144 C-39.38 144 -34.76 144 -30 144 C-30.66 140.37 -31.32 136.74 -32 133 C-34.97 132.67 -37.94 132.34 -41 132 Z M11 132 C11.66 133.65 12.32 135.3 13 137 C13.66 136.67 14.32 136.34 15 136 C15 135.01 15 134.02 15 133 C13.68 132.67 12.36 132.34 11 132 Z M4 152 C3.01 153.485 3.01 153.485 2 155 C5.465 154.505 5.465 154.505 9 154 C9 153.34 9 152.68 9 152 C6.58380177 151.74969023 6.58380177 151.74969023 4 152 Z " fill="#010203" transform="translate(288,190)"/>
<path d="M0 0 C12.22243137 0.21202177 22.19031164 4.26633648 31.3125 12.5 C48.76401421 31.22444819 44.96458858 67.53708471 45.52905273 90.99169922 C44.37129614 121.65523675 44.37129614 121.65523675 55.125 148.8671875 C56.5 150.3125 56.5 150.3125 56.5 153.3125 C53.29337112 154.91581444 49.97896647 154.79902213 46.5 154.3125 C43.5927915 152.580546 42.00050696 151.38024817 40.5625 148.3125 C40.48440269 145.81338598 41.21682342 144.4259673 42.5 142.3125 C41.71093262 142.10101318 40.92186523 141.88952637 40.10888672 141.67163086 C37.5 140.3125 37.5 140.3125 36.39501953 137.83032227 C34.21674659 126.67272418 33.75873486 115.58937088 33.375 104.25 C33.29536373 102.19363908 33.21454283 100.13732372 33.13256836 98.08105469 C32.78589774 89.21831066 32.48744682 80.35492784 32.26171875 71.48828125 C31.92512274 40.03463778 31.92512274 40.03463778 16.87109375 13.43359375 C9.53058969 6.86704729 0.85657585 4.69489983 -8.5 2.3125 C-5.70363238 -0.48386762 -3.90485016 0.01273321 0 0 Z " fill="#11C0DD" transform="translate(260.5,180.6875)"/>
<path d="M0 0 C12.22243137 0.21202177 22.19031164 4.26633648 31.3125 12.5 C47.06501397 29.40152087 44.87355386 60.01130948 44.5 81.3125 C43.51 81.8075 43.51 81.8075 42.5 82.3125 C42.17 70.1025 41.84 57.8925 41.5 45.3125 C39.52 45.8075 39.52 45.8075 37.5 46.3125 C37.5 45.3225 37.5 44.3325 37.5 43.3125 C38.16 43.3125 38.82 43.3125 39.5 43.3125 C39.005 39.8475 39.005 39.8475 38.5 36.3125 C34.31786004 40.27511937 34.31786004 40.27511937 33.375 45.8125 C33.25226053 49.16285871 33.25226053 49.16285871 34.5 51.3125 C34.5908238 53.09981924 34.61753799 54.89055489 34.61352539 56.68017578 C34.61344986 57.80118683 34.61337433 58.92219788 34.61329651 60.07717896 C34.60813522 61.29178802 34.60297394 62.50639709 34.59765625 63.7578125 C34.5962413 64.99796112 34.59482635 66.23810974 34.59336853 67.51583862 C34.58871096 70.81368133 34.57972439 74.11147546 34.56866455 77.40930176 C34.55843731 80.77416387 34.55386809 84.13903308 34.54882812 87.50390625 C34.53778269 94.10678993 34.52103247 100.70964099 34.5 107.3125 C34.17 107.3125 33.84 107.3125 33.5 107.3125 C33.48160568 106.65089874 33.46321136 105.98929749 33.44425964 105.30764771 C33.24779576 98.32976165 33.0338095 91.35255927 32.81030273 84.37548828 C32.72944333 81.78252168 32.65283547 79.18941844 32.58081055 76.59619141 C32.53195858 42.47390711 32.53195858 42.47390711 16.87109375 13.43359375 C9.53058969 6.86704729 0.85657585 4.69489983 -8.5 2.3125 C-5.70363238 -0.48386762 -3.90485016 0.01273321 0 0 Z " fill="#16B8D4" transform="translate(260.5,180.6875)"/>
<path d="M0 0 C3.01603276 3.01603276 3.28262514 6.5416297 4.1875 10.625 C4.37763672 11.40746094 4.56777344 12.18992188 4.76367188 12.99609375 C6.83874816 22.23056608 4.99600211 28.78926453 1.375 37.375 C0.70920407 38.96325365 0.0499838 40.55428528 -0.6015625 42.1484375 C-1.03976318 43.18750244 -1.03976318 43.18750244 -1.48681641 44.24755859 C-2.24084098 46.08544853 -2.24084098 46.08544853 -1 48 C-2.258125 48.2475 -3.51625 48.495 -4.8125 48.75 C-7.59365447 49.45265917 -8.80724805 49.81968366 -10.9375 51.8125 C-12.10212071 54.21024852 -12.63413796 56.36579329 -13 59 C-12.34 59 -11.68 59 -11 59 C-9.54963514 61.85460505 -8.88543167 63.41666356 -9.51171875 66.60546875 C-12.63631935 73.46713319 -12.63631935 73.46713319 -16.7890625 75.08984375 C-19.54501595 75.57765463 -22.21080187 75.82132142 -25 76 C-22.46690626 66.41002195 -18.5747711 57.38574237 -14.76660156 48.25415039 C-9.38179053 35.311791 -4.3247064 22.38785474 -1.6875 8.5625 C-1.51927734 7.72396484 -1.35105469 6.88542969 -1.17773438 6.02148438 C-0.77663901 4.01600757 -0.38695096 2.00825388 0 0 Z " fill="#1ABAD6" transform="translate(247,222)"/>
<path d="M0 0 C3.3 0 6.6 0 10 0 C11.48189962 2.96379925 10.4610204 4.86943713 9.6875 8.0625 C8.2384046 14.46101711 7.32629541 20.79053246 6.6472168 27.31274414 C6.30021838 30.61487613 5.94247505 33.80881256 5 37 C6.65 38.32 8.3 39.64 10 41 C10.33 40.34 10.66 39.68 11 39 C12.125 40.6875 12.125 40.6875 13 43 C12.125 45.75 12.125 45.75 11 48 C9.87411986 47.04270084 8.7493285 46.08412105 7.625 45.125 C6.99851563 44.59132813 6.37203125 44.05765625 5.7265625 43.5078125 C4.44163349 42.38567993 3.20628025 41.20628025 2 40 C-1.08098267 40.27386513 -3.59935662 40.82536058 -6.4375 42.0625 C-9.7066662 43.25853642 -12.54783982 43.13537883 -16 43 C-15.443125 42.5875 -14.88625 42.175 -14.3125 41.75 C-9.49637995 38.46020559 -9.49637995 38.46020559 -6 34 C-5.89261265 31.85523589 -5.81469465 29.70897612 -5.75 27.5625 C-5.31409483 18.03078621 -2.65892589 9.1149157 0 0 Z " fill="#0CC0DF" transform="translate(213,322)"/>
<path d="M0 0 C0.64559539 11.23814194 -1.78722068 20.22418046 -9 29 C-14.05230616 34.38703452 -19.50392362 38.54112455 -27.05859375 39.171875 C-28.70667187 39.18513921 -30.35507811 39.10280762 -32 39 C-31.13375 38.35998047 -31.13375 38.35998047 -30.25 37.70703125 C-22.01146334 31.45661368 -15.84032578 25.18942046 -13 15 C-12.95875 13.845 -12.9175 12.69 -12.875 11.5 C-11.47374782 5.8949913 -6.04395297 0 0 0 Z " fill="#33BCD6" transform="translate(335,326)"/>
<path d="M0 0 C4.95 0 9.9 0 15 0 C14 2 14 2 11.4375 3.0625 C8 4 8 4 0 5 C-2.31 14.24 -4.62 23.48 -7 33 C-10.32741354 31.33629323 -12.26100609 30.05239448 -14.9375 27.625 C-17.24491965 25.54185292 -19.48188035 23.64862891 -22 21.8125 C-22.66 21.214375 -23.32 20.61625 -24 20 C-24 18.68 -24 17.36 -24 16 C-19.62022365 16.48918968 -17.77487093 17.79124231 -14.8125 21 C-12.2043457 23.89851122 -12.2043457 23.89851122 -9 26 C-8.8453125 24.4221875 -8.8453125 24.4221875 -8.6875 22.8125 C-8.0637536 17.70328317 -6.83261741 12.75462301 -5.62109375 7.7578125 C-4.92676351 5.1459593 -4.92676351 5.1459593 -5 3 C-4.360625 2.87625 -3.72125 2.7525 -3.0625 2.625 C-2.381875 2.41875 -1.70125 2.2125 -1 2 C-0.67 1.34 -0.34 0.68 0 0 Z " fill="#080807" transform="translate(243,334)"/>
<path d="M0 0 C1.13000777 3.39002331 0.76201167 5.5485354 0 9 C-0.21698487 11.43505237 -0.40290745 13.87301384 -0.5625 16.3125 C-0.64628906 17.56675781 -0.73007813 18.82101562 -0.81640625 20.11328125 C-0.87699219 21.06589844 -0.93757812 22.01851563 -1 23 C-1.66 23 -2.32 23 -3 23 C-2.98839844 23.69867188 -2.97679687 24.39734375 -2.96484375 25.1171875 C-2.95130859 26.48230469 -2.95130859 26.48230469 -2.9375 27.875 C-2.92589844 28.77992188 -2.91429687 29.68484375 -2.90234375 30.6171875 C-3 33 -3 33 -4 35 C-3.443125 34.505 -2.88625 34.01 -2.3125 33.5 C0.48666796 31.68432349 1.72896614 31.34579323 5 32 C7.1875 34.4375 7.1875 34.4375 9 37 C9.66 37.33 10.32 37.66 11 38 C11.33 37.34 11.66 36.68 12 36 C13.125 37.6875 13.125 37.6875 14 40 C13.125 42.75 13.125 42.75 12 45 C10.87411986 44.04270084 9.7493285 43.08412105 8.625 42.125 C7.99851563 41.59132813 7.37203125 41.05765625 6.7265625 40.5078125 C5.44163349 39.38567993 4.20628025 38.20628025 3 37 C-0.08098267 37.27386513 -2.59935662 37.82536058 -5.4375 39.0625 C-8.7066662 40.25853642 -11.54783982 40.13537883 -15 40 C-14.443125 39.5875 -13.88625 39.175 -13.3125 38.75 C-8.49637995 35.46020559 -8.49637995 35.46020559 -5 31 C-4.8668834 28.79322254 -4.76889489 26.58428986 -4.6875 24.375 C-4.27299299 15.93837981 -2.28851922 8.1002936 0 0 Z " fill="#1FA4BB" transform="translate(212,325)"/>
<path d="M0 0 C2.01950205 2.25252152 2.25388308 3.84356465 2.625 6.8125 C2.955 7.8025 3.285 8.7925 3.625 9.8125 C0.8453437 12.901007 -1.35002336 14.68925071 -5.375 15.8125 C-7.7070802 15.88896165 -10.04345878 15.90393299 -12.375 15.8125 C-12.045 14.8225 -11.715 13.8325 -11.375 12.8125 C-9.30859375 11.86328125 -9.30859375 11.86328125 -6.8125 11.125 C-5.98621094 10.87363281 -5.15992188 10.62226563 -4.30859375 10.36328125 C-3.67050781 10.18152344 -3.03242188 9.99976563 -2.375 9.8125 C-4.025 9.4825 -5.675 9.1525 -7.375 8.8125 C-7.375 7.4925 -7.375 6.1725 -7.375 4.8125 C-6.385 4.4825 -5.395 4.1525 -4.375 3.8125 C-8.005 4.1425 -11.635 4.4725 -15.375 4.8125 C-15.705 3.4925 -16.035 2.1725 -16.375 0.8125 C-10.90561058 -0.97342307 -5.45602118 -2.72801059 0 0 Z " fill="#E4E4E4" transform="translate(283.375,305.1875)"/>
<path d="M0 0 C8.12262527 0.11675231 15.07408247 1.12233584 21.5 6.3125 C20.51 6.3125 19.52 6.3125 18.5 6.3125 C18.5 7.3025 18.5 8.2925 18.5 9.3125 C17.51 9.8075 17.51 9.8075 16.5 10.3125 C18.15 11.9625 19.8 13.6125 21.5 15.3125 C17.9737627 15.3125 17.81476524 14.9222424 15.4375 12.5625 C8.80857982 6.64382127 -0.10899198 4.66912353 -8.5 2.3125 C-5.70363238 -0.48386762 -3.90485016 0.01273321 0 0 Z " fill="#0FBFDD" transform="translate(260.5,180.6875)"/>
<path d="M0 0 C3.3 0 6.6 0 10 0 C11.48189962 2.96379925 10.4610204 4.86943713 9.6875 8.0625 C8.22241939 14.51822052 7.31706358 20.90564743 6.6472168 27.48852539 C6.09278511 32.81442978 6.09278511 32.81442978 5 35 C2.36 35 -0.28 35 -3 35 C-3 33.68 -3 32.36 -3 31 C-1.68 30.67 -0.36 30.34 1 30 C1.185625 28.329375 1.185625 28.329375 1.375 26.625 C2 23 2 23 4 21 C4.38439788 19.34436503 4.70540343 17.67394795 5 16 C5.67322429 13.39091791 6.35822696 10.78808419 7.0625 8.1875 C7.24876953 7.49462891 7.43503906 6.80175781 7.62695312 6.08789062 C8.08321198 4.39154359 8.54140954 2.6957182 9 1 C6.36 1 3.72 1 1 1 C0.67 1.66 0.34 2.32 0 3 C0 2.01 0 1.02 0 0 Z " fill="#10BEDD" transform="translate(213,322)"/>
<path d="M0 0 C2.6875 0.875 2.6875 0.875 5 2 C5.19622241 6.21878192 4.80230168 9.17010894 3 13 C2.34 13 1.68 13 1 13 C1 13.99 1 14.98 1 16 C0.34 16 -0.32 16 -1 16 C-1.33 16.99 -1.66 17.98 -2 19 C-2 18.34 -2 17.68 -2 17 C-3.32 17.33 -4.64 17.66 -6 18 C-6 20.31 -6 22.62 -6 25 C-7.32 25 -8.64 25 -10 25 C-9.67 23.02 -9.34 21.04 -9 19 C-8.34 19 -7.68 19 -7 19 C-7 17.68 -7 16.36 -7 15 C-6.34128906 14.52691406 -5.68257813 14.05382812 -5.00390625 13.56640625 C-4.34261719 13.04949219 -3.68132812 12.53257812 -3 12 C-2.6288845 9.55238095 -2.6288845 9.55238095 -2.9375 6.9375 C-3.15234375 4.27734375 -3.15234375 4.27734375 -3 2 C-2.01 1.34 -1.02 0.68 0 0 Z " fill="#0BC0DE" transform="translate(328,332)"/>
<path d="M0 0 C2 1.6875 2 1.6875 3 4.6875 C-8.73786408 10.6875 -8.73786408 10.6875 -13 10.6875 C-12.67 9.3675 -12.34 8.0475 -12 6.6875 C-11.34 6.6875 -10.68 6.6875 -10 6.6875 C-10 5.3675 -10 4.0475 -10 2.6875 C-11.98 2.6875 -13.96 2.6875 -16 2.6875 C-16 1.6975 -16 0.7075 -16 -0.3125 C-10.58617759 -1.83475392 -5.21452092 -2.2813529 0 0 Z " fill="#E4E4E4" transform="translate(290,324.3125)"/>
<path d="M0 0 C0.66 0.33 1.32 0.66 2 1 C1.979375 2.134375 1.95875 3.26875 1.9375 4.4375 C1.58422523 7.81575674 1.58422523 7.81575674 3 9 C3.1875 11.4375 3.1875 11.4375 3 14 C2.34 14.66 1.68 15.32 1 16 C0.83318891 19.08347826 0.83318891 19.08347826 1 22 C-2.63 22.66 -6.26 23.32 -10 24 C-8.046875 16.28515625 -8.046875 16.28515625 -7 14 C-4.890625 13.18359375 -4.890625 13.18359375 -3 13 C-2.855625 12.38125 -2.71125 11.7625 -2.5625 11.125 C-2 9 -2 9 -1 7 C-0.63858045 4.67085177 -0.30300475 2.33746522 0 0 Z " fill="#0EBFE0" transform="translate(232,274)"/>
<path d="M0 0 C4.37977635 0.48918968 6.22512907 1.79124231 9.1875 5 C11.7956543 7.89851122 11.7956543 7.89851122 15 10 C15 8.68 15 7.36 15 6 C16.32 5.67 17.64 5.34 19 5 C18 13.57142857 18 13.57142857 17 17 C13.88430595 15.59828464 11.5885044 13.91591092 9.0625 11.625 C6.75508035 9.54185292 4.51811965 7.64862891 2 5.8125 C1.34 5.214375 0.68 4.61625 0 4 C0 2.68 0 1.36 0 0 Z " fill="#0A0C0D" transform="translate(219,350)"/>
<path d="M0 0 C1 4 1 4 0 6 C3.63 6 7.26 6 11 6 C11 6.33 11 6.66 11 7 C9.741875 7.2475 8.48375 7.495 7.1875 7.75 C4.40634553 8.45265917 3.19275195 8.81968366 1.0625 10.8125 C-0.10212071 13.21024852 -0.63413796 15.36579329 -1 18 C-0.34 18 0.32 18 1 18 C2.25 19.9375 2.25 19.9375 3 23 C1.97424804 26.16185399 0.54827524 29.06339531 -1 32 C-1.33 32 -1.66 32 -2 32 C-2.33 30.02 -2.66 28.04 -3 26 C-2.01 25.67 -1.02 25.34 0 25 C-0.33 24.154375 -0.66 23.30875 -1 22.4375 C-2.06045059 18.79220111 -2.07397992 15.77297595 -2 12 C-2.33 11.67 -2.66 11.34 -3 11 C-2.96519531 11.60328125 -2.93039063 12.2065625 -2.89453125 12.828125 C-2.67066895 19.4373928 -2.67066895 19.4373928 -4.5 22.5625 C-4.995 23.036875 -5.49 23.51125 -6 24 C-6.99 23.67 -7.98 23.34 -9 23 C-6.03 15.41 -3.06 7.82 0 0 Z " fill="#1EA7BE" transform="translate(235,263)"/>
<path d="M0 0 C0.66 0 1.32 0 2 0 C2.33 1.65 2.66 3.3 3 5 C3.66 4.34 4.32 3.68 5 3 C5.99 3 6.98 3 8 3 C7.34 4.65 6.68 6.3 6 8 C6.66 8.33 7.32 8.66 8 9 C8.8515625 10.84765625 8.8515625 10.84765625 9.625 13.0625 C9.88539063 13.79597656 10.14578125 14.52945312 10.4140625 15.28515625 C10.60742188 15.85105469 10.80078125 16.41695313 11 17 C10.01 17.33 9.02 17.66 8 18 C11.3 18.66 14.6 19.32 18 20 C17.34 18.35 16.68 16.7 16 15 C18 16.3125 18 16.3125 20 18 C20 18.99 20 19.98 20 21 C16.79337112 22.60331444 13.47896647 22.48652213 10 22 C7.0927915 20.268046 5.50050696 19.06774817 4.0625 16 C3.98440269 13.50088598 4.71682342 12.1134673 6 10 C3.525 9.01 3.525 9.01 1 8 C0.67 5.36 0.34 2.72 0 0 Z " fill="#22AEC5" transform="translate(297,313)"/>
<path d="M0 0 C2.2781418 3.4172127 2.86365405 6.4798299 3.5625 10.4375 C3.69180908 11.16122803 3.82111816 11.88495605 3.9543457 12.63061523 C6.33480399 26.3879279 6.1150082 40.07870031 6 54 C5.01 54.495 5.01 54.495 4 55 C3.67 42.79 3.34 30.58 3 18 C1.68 18.33 0.36 18.66 -1 19 C-1 18.01 -1 17.02 -1 16 C-0.34 16 0.32 16 1 16 C0.67 14.68 0.34 13.36 0 12 C0.66 12 1.32 12 2 12 C1.67 10.7625 1.34 9.525 1 8.25 C0.20108841 5.25408155 0 3.19892281 0 0 Z " fill="#31BAD4" transform="translate(299,208)"/>
<path d="M0 0 C1.24546405 2.49092811 0.7767578 3.41080733 0 6 C1.32 6 2.64 6 4 6 C4.33 4.35 4.66 2.7 5 1 C5.66 1 6.32 1 7 1 C7 3.125 7 3.125 6 6 C0.81160386 11.06456807 -4.57731137 13.88959069 -11.875 14.125 C-12.90625 14.08375 -13.9375 14.0425 -15 14 C-14.42378906 13.57589844 -13.84757812 13.15179688 -13.25390625 12.71484375 C-11.08134626 11.06189083 -9.00175854 9.34834216 -6.9375 7.5625 C-6.26589844 6.98628906 -5.59429687 6.41007812 -4.90234375 5.81640625 C-3.00806252 4.0076983 -1.5073242 2.13654988 0 0 Z " fill="#1BB6D0" transform="translate(318,351)"/>
<path d="M0 0 C-0.165 0.598125 -0.33 1.19625 -0.5 1.8125 C-1.1114124 4.11344336 -1.1114124 4.11344336 -1 7 C-1.99 8.485 -1.99 8.485 -3 10 C-6.625 10.1875 -6.625 10.1875 -10 10 C-9.7215625 9.0409375 -9.7215625 9.0409375 -9.4375 8.0625 C-9.293125 7.381875 -9.14875 6.70125 -9 6 C-10.64079242 4.35920758 -12.77768765 4.39887658 -15 4 C-14.67 3.01 -14.34 2.02 -14 1 C-12.41693353 0.83081732 -10.83353281 0.66476064 -9.25 0.5 C-8.36828125 0.4071875 -7.4865625 0.314375 -6.578125 0.21875 C-4 0 -4 0 0 0 Z " fill="#EAEAEA" transform="translate(292,336)"/>
<path d="M0 0 C3.53317924 3.53317924 3.25513076 7.40132177 3.5625 12.1875 C3.64628906 13.45980469 3.73007813 14.73210937 3.81640625 16.04296875 C3.87699219 17.01878906 3.93757812 17.99460938 4 19 C2.68 19.33 1.36 19.66 0 20 C0 19.01 0 18.02 0 17 C-0.66 17 -1.32 17 -2 17 C-2.25706972 11.08739655 -1.2982126 5.76081841 0 0 Z " fill="#0EBEDB" transform="translate(247,222)"/>
<path d="M0 0 C1.65 0.33 3.3 0.66 5 1 C4.5547115 6.27315333 3.91626837 11.01770224 2 16 C1.01 15.67 0.02 15.34 -1 15 C-1.02715383 13.25008666 -1.04646551 11.50005055 -1.0625 9.75 C-1.07410156 8.77546875 -1.08570313 7.8009375 -1.09765625 6.796875 C-1.01195577 4.34241322 -0.70706066 2.33831086 0 0 Z " fill="#26B3CF" transform="translate(216,211)"/>
<path d="M0 0 C3.3 0 6.6 0 10 0 C11.48189962 2.96379925 10.4610204 4.86943713 9.6875 8.0625 C8.21546413 14.51938462 7.33124994 20.89500219 6.73510742 27.48852539 C6.20777368 32.79222632 6.20777368 32.79222632 4 35 C3.97310784 33.52093108 3.95365379 32.04172517 3.9375 30.5625 C3.92589844 29.73878906 3.91429687 28.91507812 3.90234375 28.06640625 C4 26 4 26 5 25 C5.45046942 21.54009198 5.81793728 18.081024 6.16210938 14.609375 C6.67038992 9.86542322 7.55759699 5.55050992 9 1 C6.36 1 3.72 1 1 1 C0.67 1.66 0.34 2.32 0 3 C0 2.01 0 1.02 0 0 Z " fill="#33B3CB" transform="translate(213,322)"/>
<path d="M0 0 C0.99 0 1.98 0 3 0 C3.38218767 1.65614657 3.71395102 3.32457024 4 5 C3.67 5.33 3.34 5.66 3 6 C2.70159433 7.51566447 2.43654898 9.03794783 2.1875 10.5625 C1.23269214 15.62808367 -0.50407381 19.50733286 -3 24 C-3.66 23.01 -4.32 22.02 -5 21 C-4.01 20.67 -3.02 20.34 -2 20 C-1.34 15.38 -0.68 10.76 0 6 C-1.32 6 -2.64 6 -4 6 C-2.84826645 3.53199953 -1.95216435 1.95216435 0 0 Z " fill="#0D1F24" transform="translate(321,328)"/>
<path d="M0 0 C0.66 0 1.32 0 2 0 C0.10177222 13.63726802 -3.84315809 26.27697202 -9 39 C-9.66 38.01 -10.32 37.02 -11 36 C-10.20128345 32.48564718 -8.92585109 29.87815209 -7.05078125 26.796875 C-4.85624241 22.99848067 -3.77853964 19.25546578 -2.8125 15 C-2.64814453 14.32710937 -2.48378906 13.65421875 -2.31445312 12.9609375 C-1.28927896 8.66101673 -0.56506257 4.38351569 0 0 Z " fill="#00151E" transform="translate(245,224)"/>
<path d="M0 0 C2.95409701 1.37154504 5.44008376 2.98863724 8 5 C8.33 4.34 8.66 3.68 9 3 C10.125 4.6875 10.125 4.6875 11 7 C10.125 9.75 10.125 9.75 9 12 C7.8944811 11.06409496 6.79064547 10.12620142 5.6875 9.1875 C5.07261719 8.66542969 4.45773438 8.14335937 3.82421875 7.60546875 C2.14575321 6.12827531 0.56117966 4.59960869 -1 3 C-0.67 2.01 -0.34 1.02 0 0 Z " fill="#050406" transform="translate(215,358)"/>
<path d="M0 0 C1.32 0 2.64 0 4 0 C5.25 7.625 5.25 7.625 3 11 C1.35 10.67 -0.3 10.34 -2 10 C-3.125 6.25 -3.125 6.25 -2 4 C-1.01 3.67 -0.02 3.34 1 3 C0.67 2.01 0.34 1.02 0 0 Z " fill="#0AC1DE" transform="translate(240,256)"/>
<path d="M0 0 C3.83690637 1.56318408 6.39154889 3.7953315 9 7 C8.8125 9.8125 8.8125 9.8125 8 12 C6.86800647 11.0919838 5.74467637 10.17316174 4.625 9.25 C3.99851563 8.73953125 3.37203125 8.2290625 2.7265625 7.703125 C0.88975893 5.89125541 -0.10651349 4.41535913 -1 2 C-0.67 1.34 -0.34 0.68 0 0 Z " fill="#090C0A" transform="translate(225,342)"/>
<path d="M0 0 C0 0.99 0 1.98 0 3 C-0.99 3.495 -0.99 3.495 -2 4 C-1.96519531 4.68707031 -1.93039062 5.37414062 -1.89453125 6.08203125 C-1.86746094 6.98308594 -1.84039062 7.88414062 -1.8125 8.8125 C-1.77769531 9.70582031 -1.74289062 10.59914063 -1.70703125 11.51953125 C-2 14 -2 14 -3.38671875 15.82421875 C-5 17 -5 17 -7 17 C-7 18.32 -7 19.64 -7 21 C-7.66 21 -8.32 21 -9 21 C-8.79503906 20.35933594 -8.59007812 19.71867187 -8.37890625 19.05859375 C-7.12041662 15.01817967 -6.03439419 11.3554066 -5.625 7.125 C-5 4 -5 4 -2.4375 1.5625 C-1.633125 1.046875 -0.82875 0.53125 0 0 Z " fill="#1CAFC6" transform="translate(328,330)"/>
<path d="M0 0 C1.86011719 0.00773438 1.86011719 0.00773438 3.7578125 0.015625 C4.99273437 0.01046875 6.22765625 0.0053125 7.5 0 C10.8828125 0.265625 10.8828125 0.265625 14.8828125 2.265625 C10.4278125 2.760625 10.4278125 2.760625 5.8828125 3.265625 C6.2128125 3.925625 6.5428125 4.585625 6.8828125 5.265625 C0.9428125 3.780625 0.9428125 3.780625 -5.1171875 2.265625 C-3.1171875 0.265625 -3.1171875 0.265625 0 0 Z " fill="#2BA9C2" transform="translate(257.1171875,180.734375)"/>
<path d="M0 0 C4.95 0 9.9 0 15 0 C14 2 14 2 11.375 3.125 C7.78189212 4.05654649 4.69584376 4.14783375 1 4 C0.67 2.68 0.34 1.36 0 0 Z " fill="#484345" transform="translate(243,334)"/>
<path d="M0 0 C0.97608217 2.92824652 1.08226668 4.95613276 1 8 C-1.64 8 -4.28 8 -7 8 C-6.67 6.68 -6.34 5.36 -6 4 C-4.68 4 -3.36 4 -2 4 C-1.34 2.68 -0.68 1.36 0 0 Z " fill="#0AC1DC" transform="translate(232,287)"/>
<path d="M0 0 C0.66 0.33 1.32 0.66 2 1 C1.835 1.556875 1.67 2.11375 1.5 2.6875 C0.95958649 5.18691249 0.92917935 7.45045662 1 10 C0.01 10.33 -0.98 10.66 -2 11 C-2.66 10.67 -3.32 10.34 -4 10 C-3.38461538 3.47692308 -3.38461538 3.47692308 -1.4375 1.0625 C-0.7259375 0.5365625 -0.7259375 0.5365625 0 0 Z " fill="#09171C" transform="translate(238,271)"/>
<path d="M0 0 C0.33 1.32 0.66 2.64 1 4 C1.66 4 2.32 4 3 4 C4.25 5.9375 4.25 5.9375 5 9 C3.97424804 12.16185399 2.54827524 15.06339531 1 18 C0.67 18 0.34 18 0 18 C-0.33 16.02 -0.66 14.04 -1 12 C-0.01 11.67 0.98 11.34 2 11 C1.67 10.113125 1.34 9.22625 1 8.3125 C0.08777857 5.29076653 -0.18330958 3.11626294 0 0 Z " fill="#30B0C7" transform="translate(233,277)"/>
<path d="M0 0 C2.76223278 2.76223278 2.57856291 5.20706617 3 9 C2.01 8.67 1.02 8.34 0 8 C0 9.98 0 11.96 0 14 C-0.66 14 -1.32 14 -2 14 C-1.03644647 4.58997722 -1.03644647 4.58997722 0 0 Z " fill="#299DB2" transform="translate(247,222)"/>
<path d="M0 0 C2.31 0 4.62 0 7 0 C7.33 0.99 7.66 1.98 8 3 C9.85811713 4.66589237 9.85811713 4.66589237 12.0625 6.1875 C12.79597656 6.71730469 13.52945312 7.24710938 14.28515625 7.79296875 C14.85105469 8.19128906 15.41695313 8.58960938 16 9 C15.34 9.66 14.68 10.32 14 11 C13.49210937 10.52949219 12.98421875 10.05898437 12.4609375 9.57421875 C8.49014136 5.98265595 4.93590001 3.0977575 0 1 C0 0.67 0 0.34 0 0 Z " fill="#21A5BD" transform="translate(266,186)"/>
<path d="M0 0 C0 0.99 0 1.98 0 3 C0.99 3.66 1.98 4.32 3 5 C-1.1205746 6.99785435 -4.45194365 7.17835515 -9 7 C-8.1646875 6.38125 -8.1646875 6.38125 -7.3125 5.75 C-4.83804044 3.87743601 -2.4164771 1.94660656 0 0 Z " fill="#2E9CB4" transform="translate(206,358)"/>
<path d="M0 0 C0.66 0 1.32 0 2 0 C2.99 2.31 3.98 4.62 5 7 C3.02 7.33 1.04 7.66 -1 8 C-1.93065133 5.39417629 -2.14917407 4.35801776 -1.0625 1.75 C-0.711875 1.1725 -0.36125 0.595 0 0 Z " fill="#29B9D4" transform="translate(303,323)"/>
<path d="M0 0 C1 4 1 4 0 7 C2.64 7 5.28 7 8 7 C4.46588679 9.12046792 1.05606165 9.53199289 -3 10 C-2.01 6.7 -1.02 3.4 0 0 Z " fill="#27ABC2" transform="translate(225,288)"/>
<path d="M0 0 C0.33 0 0.66 0 1 0 C2.45260376 8.03307379 2.45260376 8.03307379 0.625 11.9375 C0.08875 12.618125 -0.4475 13.29875 -1 14 C-1.33 14.66 -1.66 15.32 -2 16 C-2.66 16 -3.32 16 -4 16 C-2.68 10.72 -1.36 5.44 0 0 Z " fill="#1CA6BE" transform="translate(244,236)"/>
<path d="M0 0 C3.91402949 1.26941497 5.79072873 2.51167694 8 6 C5.36 6.33 2.72 6.66 0 7 C0.66 5.35 1.32 3.7 2 2 C1.01 1.67 0.02 1.34 -1 1 C-0.67 0.67 -0.34 0.34 0 0 Z " fill="#20BCD6" transform="translate(282,187)"/>
<path d="M0 0 C-0.9375 1.9375 -0.9375 1.9375 -3 4 C-5.9858081 4.66174825 -8.94861869 4.87205948 -12 5 C-11.01 3.68 -10.02 2.36 -9 1 C-9 1.66 -9 2.32 -9 3 C-8.443125 2.505 -7.88625 2.01 -7.3125 1.5 C-4.61837017 -0.24754367 -3.14624993 -0.26218749 0 0 Z " fill="#25B2CB" transform="translate(217,357)"/>
<path d="M0 0 C-0.3125 2.375 -0.3125 2.375 -1 5 C-1.99 5.66 -2.98 6.32 -4 7 C-4 6.01 -4 5.02 -4 4 C-4.99 4.33 -5.98 4.66 -7 5 C-7 4.01 -7 3.02 -7 2 C-2.25 0 -2.25 0 0 0 Z " fill="#20BCD9" transform="translate(329,348)"/>
<path d="M0 0 C-0.33 0.66 -0.66 1.32 -1 2 C-5.36414001 2.85571373 -9.56076733 3.10827397 -14 3 C-13.67 2.34 -13.34 1.68 -13 1 C-8.63585999 0.14428627 -4.43923267 -0.10827397 0 0 Z " fill="#021F28" transform="translate(235,296)"/>
<path d="M0 0 C4.49092377 2.37754788 7.52235713 5.3606063 11 9 C10.67 9.66 10.34 10.32 10 11 C9.44570313 10.50628906 8.89140625 10.01257813 8.3203125 9.50390625 C7.59585937 8.86324219 6.87140625 8.22257813 6.125 7.5625 C5.40570313 6.92441406 4.68640625 6.28632813 3.9453125 5.62890625 C2.09249509 3.94985535 2.09249509 3.94985535 0 3 C0 2.01 0 1.02 0 0 Z " fill="#00121A" transform="translate(272,190)"/>
<path d="M0 0 C0.33 0.66 0.66 1.32 1 2 C1.99 2.66 2.98 3.32 4 4 C0.32589215 5.17571451 -3.16929183 5.07366746 -7 5 C-4.702779 3.25728062 -2.40133271 1.60088848 0 0 Z " fill="#2585A0" transform="translate(310,360)"/>
<path d="M0 0 C4.21912747 0.4794463 6.79663178 1.16625119 10 4 C9.01 4 8.02 4 7 4 C6.67 4.99 6.34 5.98 6 7 C5.67 5.35 5.34 3.7 5 2 C3.35 1.67 1.7 1.34 0 1 C0 0.67 0 0.34 0 0 Z " fill="#2FBED4" transform="translate(272,183)"/>
<path d="M0 0 C1.32 0.66 2.64 1.32 4 2 C4 2.99 4 3.98 4 5 C3.01 5 2.02 5 1 5 C0.34 3.68 -0.32 2.36 -1 1 C-0.67 0.67 -0.34 0.34 0 0 Z " fill="#050E12" transform="translate(215,358)"/>
<path d="M0 0 C2.18975773 3.28463659 2.99806563 6.20696275 4 10 C2.68 9.34 1.36 8.68 0 8 C0 5.36 0 2.72 0 0 Z " fill="#29BAD4" transform="translate(309,318)"/>
<path d="M0 0 C0.33 0 0.66 0 1 0 C1 1.65 1 3.3 1 5 C1.66 5.33 2.32 5.66 3 6 C2.071875 6.12375 2.071875 6.12375 1.125 6.25 C-1.18437567 6.81258459 -1.18437567 6.81258459 -2.25 9.0625 C-2.4975 9.701875 -2.745 10.34125 -3 11 C-2.32829194 7.1936543 -1.27253436 3.64793184 0 0 Z " fill="#1EAEC3" transform="translate(239,253)"/>
<path d="M0 0 C1.65 0 3.3 0 5 0 C4.67 1.32 4.34 2.64 4 4 C2.35 3.67 0.7 3.34 -1 3 C-0.67 2.01 -0.34 1.02 0 0 Z " fill="#D9D9D9" transform="translate(278,337)"/>
<path d="M0 0 C2 1.375 2 1.375 4 3 C4 3.66 4 4.32 4 5 C1 6 1 6 -2 5 C-1.34 3.35 -0.68 1.7 0 0 Z " fill="#D9DBDA" transform="translate(289,324)"/>
<path d="M0 0 C0.33 0.66 0.66 1.32 1 2 C3.01669827 3.13350534 3.01669827 3.13350534 5 4 C5 4.66 5 5.32 5 6 C3.35 5.67 1.7 5.34 0 5 C-0.5625 3.0625 -0.5625 3.0625 -1 1 C-0.67 0.67 -0.34 0.34 0 0 Z " fill="#13BEE4" transform="translate(238,261)"/>
<path d="M0 0 C2.29013653 3.4352048 2.17842973 4.985331 2 9 C1.01 9 0.02 9 -1 9 C-0.67 6.03 -0.34 3.06 0 0 Z " fill="#45C4E2" transform="translate(297,304)"/>
<path d="M0 0 C2.475 0.495 2.475 0.495 5 1 C5 2.98 5 4.96 5 7 C4.54625 6.34 4.0925 5.68 3.625 5 C3.08875 4.34 2.5525 3.68 2 3 C1.34 3 0.68 3 0 3 C0 2.01 0 1.02 0 0 Z " fill="#157F94" transform="translate(216,211)"/>
<path d="M0 0 C1.98 0 3.96 0 6 0 C6 1.98 6 3.96 6 6 C5.01 6.495 5.01 6.495 4 7 C3.896875 6.21625 3.79375 5.4325 3.6875 4.625 C3.22404978 1.66954819 3.22404978 1.66954819 0 0 Z " fill="#00151F" transform="translate(217,210)"/>
<path d="M0 0 C0.33 0.66 0.66 1.32 1 2 C0.22265625 3.9453125 0.22265625 3.9453125 -0.9375 6.125 C-1.31777344 6.84945313 -1.69804687 7.57390625 -2.08984375 8.3203125 C-2.39019531 8.87460937 -2.69054687 9.42890625 -3 10 C-3.66 9.01 -4.32 8.02 -5 7 C-4.01 6.67 -3.02 6.34 -2 6 C-1.855625 5.195625 -1.71125 4.39125 -1.5625 3.5625 C-1 1 -1 1 0 0 Z " fill="#001D2A" transform="translate(321,342)"/>
</svg>
